HIERARCHY
ROOT hip
{
	OFFSET 0.000000 0.000000 0.000000 
	CHANNELS 6 Xposition Yposition Zposition Zrotation Xrotation Yrotation
	JOINT abdomen
	{
		OFFSET 0.000000 3.402643 0.000000 
		CHANNELS 3 Zrotation Xrotation Yrotation
		JOINT chest
		{
			OFFSET 0.000000 8.438565 -0.680529 
			CHANNELS 3 Zrotation Xrotation Yrotation
			JOINT neck
			{
				OFFSET 0.000000 10.207942 -0.272212 
				CHANNELS 3 Zrotation Xrotation Yrotation
				JOINT head
				{
					OFFSET 0.000000 3.130431 0.000000 
					CHANNELS 3 Zrotation Xrotation Yrotation
					End Site
					{
						OFFSET 0.000000 3.130435 0.000000 
					}
				}
			}
			JOINT lCollar
			{
				OFFSET 3.470700 6.669187 -0.816635 
				CHANNELS 3 Zrotation Xrotation Yrotation
				JOINT lShldr
				{
					OFFSET 3.198488 0.000000 0.000000 
					CHANNELS 3 Zrotation Xrotation Yrotation
					JOINT lForeArm
					{
						OFFSET 10.139888 0.000000 0.000000 
						CHANNELS 3 Zrotation Xrotation Yrotation
						JOINT lHand
						{
							OFFSET 8.370511 0.000000 0.000000 
							CHANNELS 3 Zrotation Xrotation Yrotation
							End Site
							{
								OFFSET 4.083176 0.000000 0.000000 
							}
						}
					}
				}
			}
			JOINT rCollar
			{
				OFFSET -3.470700 6.669187 -0.816635 
				CHANNELS 3 Zrotation Xrotation Yrotation
				JOINT rShldr
				{
					OFFSET -3.198488 0.000000 0.000000 
					CHANNELS 3 Zrotation Xrotation Yrotation
					JOINT rForeArm
					{
						OFFSET -10.139888 0.000000 0.000000 
						CHANNELS 3 Zrotation Xrotation Yrotation
						JOINT rHand
						{
							OFFSET -8.370511 0.000000 0.000000 
							CHANNELS 3 Zrotation Xrotation Yrotation
							End Site
							{
								OFFSET -4.083176 0.000000 0.000000 
							}
						}
					}
				}
			}
		}
	}
	JOINT lThigh
	{
		OFFSET 5.308129 -1.633274 1.361059 
		CHANNELS 3 Zrotation Xrotation Yrotation
		JOINT lShin
		{
			OFFSET -2.041588 -20.007561 0.000000 
			CHANNELS 3 Zrotation Xrotation Yrotation
			JOINT lFoot
			{
				OFFSET 0.000000 -19.190928 -1.224953 
				CHANNELS 3 Zrotation Xrotation Yrotation
				End Site
				{
					OFFSET 0.000000 -2.449906 4.627600 
				}
			}
		}
	}
	JOINT rThigh
	{
		OFFSET -5.308129 -1.633274 1.361059 
		CHANNELS 3 Zrotation Xrotation Yrotation
		JOINT rShin
		{
			OFFSET 2.041588 -20.007561 0.000000 
			CHANNELS 3 Zrotation Xrotation Yrotation
			JOINT rFoot
			{
				OFFSET 0.000000 -19.190928 -1.224953 
				CHANNELS 3 Zrotation Xrotation Yrotation
				End Site
				{
					OFFSET 0.000000 -2.449906 4.627600 
				}
			}
		}
	}
}
MOTION
Frames: 10
Frame Time: 0.033333
0.021322 51.987118 -2.996196 -0.400421 -0.703108 6.899383 -0.000000 -0.000002 -0.000000 -1.744761 -4.939121 -14.095873 -3.751365 15.583407 14.865915 -0.954937 -15.993991 -0.145955 -2.000757 -0.069240 1.990978 -63.053463 -9.282326 11.549763 1.530541 10.659702 -17.987335 -20.811638 6.004929 -0.923022 1.990970 -0.069577 -2.000746 78.028015 13.090620 -4.221217 -3.584828 14.590248 15.511817 21.245504 -7.534020 3.536432 2.134935 -5.214381 2.005021 -1.378728 9.795974 0.744937 0.385654 -2.545020 -2.282797 -2.483880 -3.403550 3.586908 4.453535 13.883810 1.710131 -6.706068 -12.738144 -24.165150 
-0.108132 51.651619 -3.018743 -0.419934 -0.439442 9.010369 -0.000000 -0.000002 -0.000000 -2.203920 -6.996821 -14.155403 -3.529223 17.312817 13.502066 -0.954937 -15.993991 -0.145955 -2.000757 -0.069240 1.990978 -51.063950 -12.213612 2.677841 3.379511 9.781651 -37.412277 -20.657377 0.750553 -3.486633 1.990970 -0.069577 -2.000746 79.233162 13.430691 -8.495708 -4.325368 14.372293 18.569613 21.260075 -7.495788 3.516423 0.127650 -5.625109 -2.996281 -1.737815 10.670395 0.781176 2.172200 -3.790092 1.509761 0.067249 -4.825805 5.199262 3.609816 10.289889 1.825144 -8.683830 -8.320407 -27.702791 
-0.121524 51.500076 -3.021281 -0.429696 -0.361332 9.655492 -0.000000 -0.000002 -0.000000 -2.433558 -7.610401 -14.180314 -3.195811 17.552462 11.950511 -0.954937 -15.993991 -0.145955 -2.000757 -0.069240 1.990978 -37.886936 -18.919895 -8.633795 5.052582 8.034086 -60.437298 -20.800964 -5.510527 -6.583271 1.990970 -0.069577 -2.000746 79.529930 13.501540 -9.734421 -4.504676 14.318231 19.293221 21.264874 -7.456956 3.496423 0.294626 -6.391245 -3.017639 -2.239806 12.372938 0.951340 2.379619 -4.813369 0.854711 1.319740 -5.040080 5.967113 2.421566 7.354058 2.031874 -9.024239 -5.392677 -28.797043 
-0.106298 51.486942 -3.020147 -0.439459 -0.312505 10.017134 -0.000000 -0.000002 -0.000000 -2.524224 -7.941606 -14.196634 -2.856924 17.499079 10.342118 -0.954937 -15.993991 -0.145955 -2.000757 -0.069240 1.990978 -24.956682 -28.754946 -19.585121 5.915267 5.600038 -84.975525 -21.336384 -12.183361 -9.982907 1.990970 -0.069577 -2.000746 79.648254 13.542122 -10.399633 -4.540201 14.307501 19.474318 21.279453 -7.418116 3.476412 0.304267 -6.448745 -3.002369 -2.257983 12.477805 0.922327 2.362200 -4.896446 0.491049 1.284714 -5.134618 5.947929 2.568888 7.635035 2.024029 -9.175751 -5.583669 -29.178888 
-0.081596 51.477921 -3.018709 -0.439458 -0.273448 10.349477 -0.000000 -0.000002 -0.000000 -2.595192 -8.243603 -14.200480 -2.527665 17.386429 8.714737 -0.954937 -15.993991 -0.145955 -2.000757 -0.069240 1.990978 -13.146868 -40.352772 -28.928278 5.692782 3.069767 -109.045830 -22.282274 -18.726530 -13.510900 1.990970 -0.069577 -2.000746 79.749763 13.575978 -10.954221 -4.527870 14.321227 19.374418 21.294065 -7.379280 3.456402 0.334091 -6.499022 -3.024391 -2.270352 12.496797 0.962519 2.376425 -4.957929 0.154951 1.261186 -4.864707 5.982103 2.636328 7.169696 1.962490 -9.244229 -5.385081 -29.452721 
-0.048296 51.472744 -3.016979 -0.449223 -0.234384 10.652460 -0.000000 -0.000002 -0.000000 -2.656330 -8.526118 -14.212465 -2.218920 17.243681 7.132317 -0.954937 -15.993991 -0.145955 -2.000757 -0.069240 1.990978 -7.381454 -45.922894 -32.694023 5.240576 1.989836 -119.991310 -22.436201 -21.715214 -15.489015 1.990970 -0.069577 -2.000746 79.833275 13.612138 -11.428676 -4.508897 14.316651 19.272873 21.308039 -7.350263 3.426632 0.343812 -6.528016 -3.021040 -2.280779 12.564737 0.972322 2.372217 -5.016593 -0.150660 1.254018 -4.889147 5.999509 2.685279 7.245571 1.959684 -9.347543 -5.461672 -29.786629 
-0.007325 51.470867 -3.014957 -0.449222 -0.195316 10.926204 -0.000000 -0.000002 -0.000000 -2.707384 -8.759895 -14.221771 -1.930800 17.070938 5.605740 -0.954937 -15.993991 -0.145955 -2.000757 -0.069240 1.990978 -6.587811 -45.241119 -32.525043 5.275569 2.048337 -119.372375 -21.522938 -21.604733 -15.920380 1.990970 -0.069577 -2.000746 79.898926 13.641044 -11.832524 -4.472337 14.328099 19.162582 21.325237 -7.253147 3.376680 0.333854 -6.558209 -3.029679 -2.280317 12.525466 0.982728 2.384061 -5.037886 -0.442670 1.251986 -4.827657 6.003154 2.654179 7.059105 1.969314 -9.354675 -5.438934 -30.067865 
0.040459 51.471947 -3.012620 -0.458986 -0.166009 11.160782 -0.000000 -0.000002 -0.000000 -2.728741 -8.974347 -14.235034 -1.788725 17.169855 4.912673 -0.954937 -15.993991 -0.145955 -2.000757 -0.069240 1.990978 -5.783363 -44.604214 -32.348141 5.298078 2.100376 -118.791374 -20.630836 -21.538425 -16.303524 1.990970 -0.069577 -2.000746 79.944031 13.663600 -12.155683 -4.400195 14.360011 18.821470 21.341351 -7.155527 3.316885 0.353595 -6.546487 -3.008703 -2.260151 12.458936 0.961975 2.387752 -5.002982 -0.656961 1.280224 -4.941961 5.998636 2.664344 7.356999 1.953516 -9.381872 -5.640495 -30.336592 
0.094111 51.475605 -3.009980 -0.458985 -0.146477 11.366014 -0.000000 -0.000002 -0.000000 -2.720260 -9.159762 -14.242404 -1.751100 17.511845 4.931358 -0.954937 -15.993991 -0.145955 -2.000757 -0.069240 1.990978 -5.008062 -44.005260 -32.202656 5.326883 2.156230 -118.269585 -19.743687 -21.505800 -16.627041 1.990970 -0.069577 -2.000746 79.968040 13.678157 -12.438238 -4.281111 14.395472 18.379393 21.346849 -7.039508 3.257010 0.363470 -6.527493 -3.018778 -2.250026 12.421407 0.971205 2.423533 -4.999943 -0.867792 1.300405 -4.641417 6.000256 2.631558 6.849364 1.948728 -9.338502 -5.362000 -30.459904 
0.152787 51.481312 -3.007026 -0.468751 -0.117193 11.542009 -0.000000 -0.000002 -0.000000 -2.711495 -9.306155 -14.247843 -1.713114 17.824564 4.889766 -0.954937 -15.993991 -0.145955 -2.000757 -0.069240 1.990978 -4.238944 -43.458519 -32.065643 5.352730 2.200166 -117.786018 -18.892958 -21.499153 -16.900816 1.990970 -0.069577 -2.000746 79.980827 13.686957 -12.640009 -4.159631 14.419912 17.865568 21.371414 -6.932184 3.187408 0.363617 -6.496765 -3.001560 -2.217898 12.307067 0.939789 2.447027 -4.942167 -1.011002 1.337544 -4.668178 5.992378 2.564717 6.966147 1.994811 -9.298998 -5.416177 -30.657013 
